<?xml version="1.0" encoding="iso-8859-1"?>
<!-- Uploaded to: SVG Repo, www.svgrepo.com, Generator: SVG Repo Mixer Tools -->
<svg height="800px" width="800px" version="1.1" id="Capa_1" xmlns="http://www.w3.org/2000/svg" xmlns:xlink="http://www.w3.org/1999/xlink" 
	 viewBox="0 0 47.656 47.656" xml:space="preserve">
<g>
	<path style="fill:#010002;" d="M5.354,47.656h36.947c0.345,0,0.625-0.28,0.625-0.625V0.625C42.926,0.28,42.646,0,42.301,0H5.354
		C5.009,0,4.729,0.28,4.729,0.625v46.406C4.729,47.376,5.01,47.656,5.354,47.656z M5.979,1.25h35.697v45.156H5.979V1.25z"/>
	<path style="fill:#010002;" d="M39.741,3.842H7.918c-0.345,0-0.625,0.28-0.625,0.625v8.177c0,0.345,0.28,0.625,0.625,0.625h31.823
		c0.345,0,0.625-0.28,0.625-0.625V4.467C40.366,4.123,40.085,3.842,39.741,3.842z M39.116,12.02H8.542V5.093h30.573V12.02z"/>
	<path style="fill:#010002;" d="M17.319,15.862h-6.799c-0.345,0-0.625,0.28-0.625,0.625v7.34c0,0.345,0.28,0.625,0.625,0.625h6.799
		c0.345,0,0.625-0.28,0.625-0.625v-7.34C17.944,16.143,17.665,15.862,17.319,15.862z M16.694,23.202h-5.549v-6.09h5.549V23.202z"/>
	<path style="fill:#010002;" d="M27.228,15.862h-6.799c-0.345,0-0.625,0.28-0.625,0.625v7.34c0,0.345,0.28,0.625,0.625,0.625h6.799
		c0.345,0,0.625-0.28,0.625-0.625v-7.34C27.853,16.142,27.573,15.862,27.228,15.862z M26.603,23.202h-5.549v-6.09h5.549V23.202z"/>
	<path style="fill:#010002;" d="M37.111,15.863h-6.799c-0.345,0-0.625,0.28-0.625,0.625v7.34c0,0.345,0.28,0.625,0.625,0.625h6.799
		c0.345,0,0.625-0.28,0.625-0.625v-7.34C37.736,16.143,37.457,15.863,37.111,15.863z M36.486,23.203h-5.549v-6.09h5.549V23.203z"/>
	<path style="fill:#010002;" d="M17.319,25.592h-6.799c-0.345,0-0.625,0.28-0.625,0.625v7.339c0,0.345,0.28,0.625,0.625,0.625h6.799
		c0.345,0,0.625-0.28,0.625-0.625v-7.339C17.944,25.872,17.665,25.592,17.319,25.592z M16.694,32.931h-5.549v-6.089h5.549V32.931z"
		/>
	<path style="fill:#010002;" d="M27.228,25.591h-6.799c-0.345,0-0.625,0.28-0.625,0.625v7.339c0,0.345,0.28,0.625,0.625,0.625h6.799
		c0.345,0,0.625-0.28,0.625-0.625v-7.339C27.853,25.872,27.573,25.591,27.228,25.591z M26.603,32.931h-5.549v-6.089h5.549V32.931z"
		/>
	<path style="fill:#010002;" d="M37.111,25.592h-6.799c-0.345,0-0.625,0.28-0.625,0.625v7.339c0,0.345,0.28,0.625,0.625,0.625h6.799
		c0.345,0,0.625-0.28,0.625-0.625v-7.339C37.736,25.873,37.457,25.592,37.111,25.592z M36.486,32.932h-5.549v-6.089h5.549V32.932z"
		/>
	<path style="fill:#010002;" d="M17.319,35.32h-6.799c-0.345,0-0.625,0.28-0.625,0.625v7.34c0,0.345,0.28,0.625,0.625,0.625h6.799
		c0.345,0,0.625-0.28,0.625-0.625v-7.34C17.944,35.6,17.665,35.32,17.319,35.32z M16.694,42.66h-5.549v-6.09h5.549V42.66z"/>
	<path style="fill:#010002;" d="M27.228,35.32h-6.799c-0.345,0-0.625,0.28-0.625,0.625v7.34c0,0.345,0.28,0.625,0.625,0.625h6.799
		c0.345,0,0.625-0.28,0.625-0.625v-7.34C27.853,35.6,27.573,35.32,27.228,35.32z M26.603,42.659h-5.549v-6.09h5.549V42.659z"/>
	<path style="fill:#010002;" d="M37.111,35.32h-6.799c-0.345,0-0.625,0.28-0.625,0.625v7.34c0,0.345,0.28,0.625,0.625,0.625h6.799
		c0.345,0,0.625-0.28,0.625-0.625v-7.34C37.736,35.601,37.457,35.32,37.111,35.32z M36.486,42.66h-5.549v-6.09h5.549V42.66z"/>
</g>
</svg>