<svg xmlns="http://www.w3.org/2000/svg"  viewBox="0 0 80 80" width="40px" height="40px"><rect width="65" height="8" x="7.5" y="22.5" fill="#c5d4de"/><rect width="22.75" height="6" x="28.625" y="6.5" fill="#c5d4de"/><rect width="65" height="8" x="7.5" y="22.5" fill="none" stroke="#b0c1d4" stroke-miterlimit="10"/><line x1="51" x2="29" y1="6.5" y2="6.5" fill="none" stroke="#b0c1d4" stroke-miterlimit="10"/><line x1="29" x2="51" y1="12.5" y2="12.5" fill="none" stroke="#b0c1d4" stroke-miterlimit="10"/><path fill="#fff" d="M57.5,30.5v-18l-6-5.375V30.5h-23V7.125l-6,5.375v18h-15v38c0,2.209,1.791,4,4,4h57 c2.209,0,4-1.791,4-4v-38H57.5z"/><path fill="none" stroke="#e1ebf2" stroke-miterlimit="10" d="M57.5,30.5v-18l-6-5.375V30.5h-23V7.125l-6,5.375v18h-15v38 c0,2.209,1.791,4,4,4h57c2.209,0,4-1.791,4-4v-38H57.5z"/><rect width="9" height="9" x="29.5" y="40.5" fill="#f78f8f" stroke="#c74343" stroke-miterlimit="10"/><rect width="9" height="9" x="41.5" y="40.5" fill="#bae0bd" stroke="#5e9c76" stroke-miterlimit="10"/><rect width="9" height="9" x="29.5" y="52.5" fill="#8bb7f0" stroke="#4e7ab5" stroke-miterlimit="10"/><rect width="9" height="9" x="41.5" y="52.5" fill="#ffeea3" stroke="#f5ce85" stroke-miterlimit="10"/></svg>