<?xml version="1.0" encoding="utf-8"?>
<!-- Generator: Adobe Illustrator 24.3.0, SVG Export Plug-In . SVG Version: 6.00 Build 0)  -->
<svg version="1.1" id="Layer_1" xmlns="http://www.w3.org/2000/svg" xmlns:xlink="http://www.w3.org/1999/xlink" x="0px" y="0px"
	 viewBox="0 0 64 64" enable-background="new 0 0 64 64" xml:space="preserve">
<path fill="#FBF5FC" d="M11.6,57.2c0.2,1.9,1.9,3.3,3.8,3.2L39.9,58c1.9-0.2,3.3-1.9,3.2-3.8l-4.2-43.7c-0.2-1.9-1.9-3.3-3.8-3.2
	L10.5,9.7c-1.4,0.1-2.6,1.1-3,2.4l0,0l0,0c-0.1,0.4-0.2,0.9-0.2,1.4L11.6,57.2z"/>
<path fill="#FBF5FC" d="M12.8,51.5c-0.1,1.9,1.3,3.6,3.2,3.8l24.5,1.9c1.9,0.1,3.6-1.3,3.8-3.2l3.3-43.8c0.1-1.9-1.3-3.6-3.2-3.8
	L19.8,4.5c-1.4-0.1-2.7,0.7-3.4,1.9l0,0l0,0c-0.2,0.4-0.4,0.9-0.4,1.4L12.8,51.5z"/>
<path d="M35.3,34.5c0.5,0,0.9-0.2,1.3-0.4c-0.6,0.9-1.4,1.5-2.4,1.9l3.6,1.2l-0.2-0.5C37.1,36,37,35.1,37,34.2
	c0.4,0.8,1.2,1.3,2.1,1.3c1.3,0,2.3-1,2.3-2.3c0-1.1-0.8-2-1.8-2.2c0.6-0.4,1-1.1,1-1.9c0-1.3-1-2.3-2.3-2.3c-1.3,0-2.3,1-2.3,2.3
	c0,0.4,0.1,0.7,0.2,1c-0.3-0.1-0.6-0.2-0.9-0.2c-1.3,0-2.3,1-2.3,2.3S34,34.5,35.3,34.5z"/>
<path d="M30.9,11.1c0.2,0,0.3-0.1,0.4-0.1c-0.2,0.3-0.5,0.5-0.8,0.7l1.2,0.4l-0.1-0.2c-0.1-0.3-0.2-0.6-0.2-0.9
	c0.1,0.3,0.4,0.5,0.7,0.5c0.4,0,0.8-0.4,0.8-0.8c0-0.4-0.3-0.7-0.6-0.8c0.2-0.1,0.3-0.4,0.3-0.7c0-0.4-0.4-0.8-0.8-0.8
	s-0.8,0.4-0.8,0.8c0,0.1,0,0.2,0.1,0.3c-0.1,0-0.2-0.1-0.3-0.1c-0.4,0-0.8,0.4-0.8,0.8C30.1,10.8,30.4,11.1,30.9,11.1z"/>
<path d="M40.8,53.6c0,0.4,0.4,0.8,0.8,0.8c0.2,0,0.3-0.1,0.4-0.1c-0.2,0.3-0.5,0.5-0.8,0.7l1.2,0.4l-0.1-0.2
	c-0.1-0.3-0.2-0.6-0.2-0.9c0.1,0.3,0.4,0.5,0.7,0.5c0.4,0,0.8-0.4,0.8-0.8c0-0.4-0.3-0.7-0.6-0.8c0.2-0.1,0.3-0.4,0.3-0.7
	c0-0.4-0.4-0.8-0.8-0.8s-0.8,0.4-0.8,0.8c0,0.1,0,0.2,0.1,0.3c-0.1,0-0.2-0.1-0.3-0.1C41.2,52.8,40.8,53.2,40.8,53.6z"/>
<path fill="#DAD5DB" d="M26.7,6.7c0.1-0.5,0.3-0.9,0.6-1.3c0.1-0.1,0.2-0.2,0.3-0.3L26.9,5c-1,0.1-2,0.5-2.6,1.3
	c-0.3,0.4-0.5,0.8-0.6,1.3L13,50.3c-0.5,1.9,0.7,3.8,2.5,4.3l4.2,1.1l10,0.8l-11.2-2.8c-1.9-0.5-3-2.4-2.5-4.3L26.7,6.7z"/>
<path fill="#DAD5DB" d="M40.5,57.1L16,55.3c-1.9-0.1-3.4-1.8-3.2-3.8L16,9.1l-3.6,0.4c-0.2,0.4-0.3,0.8-0.3,1.3l-0.4,43.9
	c0,1.9,1.5,3.5,3.5,3.5L36,58.4l3.9-0.4c0.9-0.1,1.6-0.5,2.2-1.1C41.6,57.1,41.1,57.2,40.5,57.1z"/>
<path fill="#FBF5FC" d="M16,49.3c-0.5,1.9,0.7,3.8,2.5,4.3l23.9,6c1.9,0.5,3.8-0.7,4.3-2.5l10.7-42.6c0.5-1.9-0.7-3.8-2.5-4.3
	L31,4.1c-1.4-0.4-2.8,0.2-3.6,1.3l0,0l0,0c-0.3,0.4-0.5,0.8-0.6,1.3L16,49.3z"/>
<path d="M14.6,61.8c0.1,0,0.3,0,0.4,0l23.3-2.2l3.8,1c0.4,0.1,0.7,0.1,1.1,0.1c2,0,3.9-1.4,4.4-3.4l10.7-42.6
	c0.3-1.2,0.1-2.4-0.5-3.4c-0.6-1-1.6-1.8-2.8-2.1l-23.9-6c-1.6-0.4-3.2,0.1-4.3,1.2l-6.6-0.5c-1.2-0.1-2.4,0.3-3.3,1.1
	c-0.9,0.8-1.5,1.9-1.6,3.1l0,0.6L10.1,9C8.9,9.1,7.8,9.7,7,10.6s-1.1,2.1-1,3.3l4.1,43.7C10.4,60,12.4,61.8,14.6,61.8z M30.8,5.1
	l23.9,6c1.3,0.3,2.2,1.7,1.8,3.1L45.7,56.7c-0.3,1.3-1.7,2.2-3.1,1.8l-23.9-6c-1.3-0.3-2.2-1.7-1.8-3.1L27.7,6.9v0
	C28,5.6,29.4,4.7,30.8,5.1z M17.5,8.1c0.1-0.7,0.4-1.3,0.9-1.7c0.5-0.4,1.2-0.6,1.8-0.6l5.6,0.5c0,0.1,0,0.1-0.1,0.2c0,0,0,0,0,0
	L15,49c-0.3,1.2-0.1,2.4,0.5,3.4c0.6,1,1.6,1.8,2.8,2.1l1.5,0.4l-3.7-0.3c-1.4-0.1-2.4-1.3-2.3-2.7L17.5,8.1z M8.6,11.9
	c0.4-0.5,1-0.8,1.7-0.9l5-0.5l-3.4,41.1c-0.2,2.5,1.6,4.7,4.1,4.9l15.7,1.3l0.9,0.2l-17.7,1.7c-1.4,0.1-2.6-0.9-2.7-2.3L8,13.7
	C7.9,13.1,8.1,12.4,8.6,11.9z"/>
<path d="M35.3,34.5c0.5,0,0.9-0.2,1.3-0.4c-0.6,0.9-1.4,1.5-2.4,1.9l3.6,1.2l-0.2-0.5C37.1,36,37,35.1,37,34.2
	c0.4,0.8,1.2,1.3,2.1,1.3c1.3,0,2.3-1,2.3-2.3c0-1.1-0.8-2-1.8-2.2c0.6-0.4,1-1.1,1-1.9c0-1.3-1-2.3-2.3-2.3c-1.3,0-2.3,1-2.3,2.3
	c0,0.4,0.1,0.7,0.2,1c-0.3-0.1-0.6-0.2-0.9-0.2c-1.3,0-2.3,1-2.3,2.3S34,34.5,35.3,34.5z"/>
<path d="M30.9,11.1c0.2,0,0.3-0.1,0.4-0.1c-0.2,0.3-0.5,0.5-0.8,0.7l1.2,0.4l-0.1-0.2c-0.1-0.3-0.2-0.6-0.2-0.9
	c0.1,0.3,0.4,0.5,0.7,0.5c0.4,0,0.8-0.4,0.8-0.8c0-0.4-0.3-0.7-0.6-0.8c0.2-0.1,0.3-0.4,0.3-0.7c0-0.4-0.4-0.8-0.8-0.8
	s-0.8,0.4-0.8,0.8c0,0.1,0,0.2,0.1,0.3c-0.1,0-0.2-0.1-0.3-0.1c-0.4,0-0.8,0.4-0.8,0.8C30.1,10.8,30.4,11.1,30.9,11.1z"/>
<path d="M40.8,53.6c0,0.4,0.4,0.8,0.8,0.8c0.2,0,0.3-0.1,0.4-0.1c-0.2,0.3-0.5,0.5-0.8,0.7l1.2,0.4l-0.1-0.2
	c-0.1-0.3-0.2-0.6-0.2-0.9c0.1,0.3,0.4,0.5,0.7,0.5c0.4,0,0.8-0.4,0.8-0.8c0-0.4-0.3-0.7-0.6-0.8c0.2-0.1,0.3-0.4,0.3-0.7
	c0-0.4-0.4-0.8-0.8-0.8s-0.8,0.4-0.8,0.8c0,0.1,0,0.2,0.1,0.3c-0.1,0-0.2-0.1-0.3-0.1C41.2,52.8,40.8,53.2,40.8,53.6z"/>
</svg>
